<svg width="342" height="30" viewBox="0 0 342 30" fill="none" xmlns="http://www.w3.org/2000/svg">
<line x1="8" y1="11.5" x2="158" y2="11.5" stroke="black"/>
<line x1="184" y1="11.5" x2="334" y2="11.5" stroke="black"/>
<path d="M168.58 12.1364C167.989 12.1364 167.47 11.9957 167.024 11.7145C166.581 11.4332 166.234 11.0398 165.984 10.5341C165.737 10.0284 165.614 9.4375 165.614 8.76136C165.614 8.07955 165.737 7.48437 165.984 6.97585C166.234 6.46733 166.581 6.07244 167.024 5.79119C167.47 5.50994 167.989 5.36932 168.58 5.36932C169.17 5.36932 169.688 5.50994 170.131 5.79119C170.577 6.07244 170.923 6.46733 171.17 6.97585C171.42 7.48437 171.545 8.07955 171.545 8.76136C171.545 9.4375 171.42 10.0284 171.17 10.5341C170.923 11.0398 170.577 11.4332 170.131 11.7145C169.688 11.9957 169.17 12.1364 168.58 12.1364ZM168.58 11.233C169.028 11.233 169.398 11.1179 169.688 10.8878C169.977 10.6577 170.192 10.3551 170.331 9.98011C170.47 9.60511 170.54 9.19886 170.54 8.76136C170.54 8.32386 170.47 7.91619 170.331 7.53835C170.192 7.16051 169.977 6.85511 169.688 6.62216C169.398 6.3892 169.028 6.27273 168.58 6.27273C168.131 6.27273 167.761 6.3892 167.472 6.62216C167.182 6.85511 166.967 7.16051 166.828 7.53835C166.689 7.91619 166.619 8.32386 166.619 8.76136C166.619 9.19886 166.689 9.60511 166.828 9.98011C166.967 10.3551 167.182 10.6577 167.472 10.8878C167.761 11.1179 168.131 11.233 168.58 11.233ZM173.081 12V5.45455H174.052V6.44318H174.12C174.24 6.11932 174.456 5.85653 174.768 5.65483C175.081 5.45312 175.433 5.35227 175.825 5.35227C175.899 5.35227 175.991 5.35369 176.102 5.35653C176.213 5.35937 176.297 5.36364 176.353 5.36932V6.39205C176.319 6.38352 176.241 6.37074 176.119 6.35369C176 6.33381 175.873 6.32386 175.74 6.32386C175.422 6.32386 175.137 6.39062 174.887 6.52415C174.64 6.65483 174.444 6.83665 174.299 7.0696C174.157 7.29972 174.086 7.5625 174.086 7.85795V12H173.081Z" fill="#444444"/>
</svg>
